#!OML:ASF I:\golf\golf\golf 2\Subject 1\2002-09-07\Subject1.ASF
:FULLY-SPECIFIED
:DEGREES
364
root -6.40246 18.0073 -3.70257 -164.431 2.18373 -174.506
lowerback -6.92711 9.85351 12.2381
upperback -9.56946 15.6135 4.46707
thorax -4.87949 8.25557 -1.32419
lowerneck -10.1916 -14.5993 -1.52686
upperneck 11.3553 -19.4481 -1.62184
head 5.0378 -9.75055 -1.67259
rclavicle -5.32743e-014 2.22639e-014
rhumerus 89.4845 30.2126 -63.3516
rradius 61.1406
rwrist -1.8782
rhand -40.9817 34.4411
rfingers 7.12502
rthumb -13.914 4.92659
lclavicle -5.32743e-014 2.22639e-014
lhumerus 64.2881 7.45434 59.5249
lradius 61.2591
lwrist 15.2282
lhand -28.4166 14.1214
lfingers 7.12502
lthumb -181.788 -135.906
rfemur 8.77001 -7.7496 21.4214
rtibia 22.302
rfoot 21.2982 -26.2061
rtoes 14.2151
lfemur -27.613 -13.9087 -13.3421
ltibia 21.2165
lfoot 52.4349 -26.7903
ltoes 45.3918
365
root -6.39536 18.0021 -3.67985 -164.487 2.56678 -174.578
lowerback -6.82101 9.8148 12.1
upperback -9.33714 15.4609 4.49685
thorax -4.7184 8.16703 -1.22877
lowerneck -10.3101 -14.3398 -1.34855
upperneck 11.0806 -19.1027 -1.56652
head 4.96088 -9.5677 -1.64817
rclavicle -1.74931e-014 7.79236e-014
rhumerus 88.9006 30.1159 -63.424
rradius 60.3899
rwrist -2.4329
rhand -41.1569 34.3776
rfingers 7.12502
rthumb -14.0828 4.87477
lclavicle -1.74931e-014 7.79236e-014
lhumerus 64.1852 6.70823 59.8801
lradius 60.3671
lwrist 15.9225
lhand -28.1709 14.2392
lfingers 7.12502
lthumb -181.551 -135.787
rfemur 8.66904 -7.96857 21.1839
rtibia 22.5309
rfoot 21.0818 -26.1973
rtoes 13.1891
lfemur -27.5353 -13.8586 -13.4159
ltibia 21.1384
lfoot 52.4095 -25.8211
ltoes 46.0386
366
root -6.39024 18.0054 -3.66085 -164.611 3.03137 -174.616
lowerback -6.55795 9.81475 12.0314
upperback -9.1486 15.3941 4.49757
thorax -4.66228 8.10909 -1.22769
lowerneck -10.4743 -14.1571 -1.21555
upperneck 11.1124 -18.8695 -1.56725
head 4.98589 -9.44587 -1.66277
rclavicle -1.90833e-014 -6.20208e-014
rhumerus 88.3426 29.9159 -63.4595
rradius 59.4979
rwrist -2.82613
rhand -41.5423 33.398
rfingers 7.12502
rthumb -14.4542 3.92136
lclavicle -1.90833e-014 -6.20208e-014
lhumerus 64.0115 5.86868 60.2566
lradius 59.4588
lwrist 16.6269
lhand -28.3421 14.0173
lfingers 7.12502
lthumb -181.716 -136.01
rfemur 8.61536 -8.05635 20.966
rtibia 22.8061
rfoot 20.7284 -26.2977
rtoes 13.5984
lfemur -27.3952 -13.8462 -13.4382
ltibia 21.0812
lfoot 51.7467 -26.6444
ltoes 45.0897
367
root -6.38468 18.0102 -3.63656 -164.656 3.48459 -174.653
lowerback -6.23505 9.81477 11.944
upperback -9.04932 15.3646 4.45763
thorax -4.72897 8.06669 -1.28153
lowerneck -10.8345 -13.9519 -0.99939
upperneck 11.3981 -18.6113 -1.69211
head 5.10263 -9.31466 -1.74947
rclavicle -1.86858e-014 -1.47896e-013
rhumerus 87.6886 29.7237 -63.7232
rradius 58.4367
rwrist -3.1682
rhand -40.9396 33.4961
rfingers 7.12502
rthumb -13.8735 3.97883
lclavicle -1.86858e-014 -1.47896e-013
lhumerus 63.8606 4.99195 60.7324
lradius 58.6054
lwrist 17.6745
lhand -28.3287 13.696
lfingers 7.12502
lthumb -181.703 -136.331
rfemur 8.4588 -8.20833 20.7341
rtibia 23.0711
rfoot 20.5728 -25.8979
rtoes 12.5775
lfemur -27.3701 -13.8026 -13.4283
ltibia 21.045
lfoot 51.1912 -27.5073
ltoes 44.0649
368
root -6.37731 18.0078 -3.60744 -164.597 3.85977 -174.626
lowerback -6.06938 9.78184 11.8871
upperback -8.93165 15.2715 4.44581
thorax -4.69853 8.00303 -1.29058
lowerneck -11.1331 -13.6898 -0.768023
upperneck 11.47 -18.2777 -1.73651
head 5.15046 -9.14074 -1.79341
rclavicle 5.52621e-014 3.18055e-015
rhumerus 87.2055 29.5882 -63.8691
rradius 57.4082
rwrist -3.52559
rhand -40.645 33.2121
rfingers 7.12502
rthumb -13.5895 3.67559
lclavicle 5.52621e-014 3.18055e-015
lhumerus 63.6887 4.23872 61.0286
lradius 57.6495
lwrist 18.3339
lhand -28.3997 13.3704
lfingers 7.12502
lthumb -181.772 -136.657
rfemur 8.21132 -8.48383 20.5883
rtibia 23.2964
rfoot 20.0648 -25.8244
rtoes 12.3103
lfemur -27.4699 -13.744 -13.3209
ltibia 21.009
lfoot 51.0906 -27.1744
ltoes 44.2936
369
root -6.36798 18.0094 -3.57873 -164.548 4.21642 -174.447
lowerback -5.95257 9.75708 11.9497
upperback -8.74064 15.1761 4.50875
thorax -4.5585 7.94362 -1.26119
lowerneck -11.3863 -13.4805 -0.629241
upperneck 11.3968 -18.0033 -1.7092
head 5.16089 -8.99428 -1.79844
rclavicle 1.33186e-013 6.36111e-015
rhumerus 86.9263 29.4458 -63.7906
rradius 56.4331
rwrist -4.02862
rhand -40.7624 32.5551
rfingers 7.12502
rthumb -13.7026 3.02623
lclavicle 1.33186e-013 6.36111e-015
lhumerus 63.5452 3.6457 61.5181
lradius 56.9247
lwrist 19.3689
lhand -27.7389 13.3543
lfingers 7.12502
lthumb -181.134 -136.669
rfemur 7.98317 -8.51098 20.7143
rtibia 23.5263
rfoot 19.2466 -26.3174
rtoes 13.5951
lfemur -27.551 -13.6198 -13.0547
ltibia 20.9674
lfoot 51.0122 -26.6362
ltoes 44.6441
370
root -6.35835 18.014 -3.55169 -164.544 4.62006 -174.368
lowerback -5.75516 9.7376 11.8816
upperback -8.59129 15.1011 4.51929
thorax -4.51786 7.89009 -1.24347
lowerneck -11.5918 -13.3142 -0.45537
upperneck 11.3428 -17.7977 -1.68507
head 5.1659 -8.88178 -1.81101
rclavicle 1.31198e-014 7.95139e-015
rhumerus 86.5569 29.2842 -63.7335
rradius 55.4796
rwrist -4.60045
rhand -40.729 32.108
rfingers 7.12502
rthumb -13.6705 2.57696
lclavicle 1.31198e-014 7.95139e-015
lhumerus 63.4511 3.06579 62.3326
lradius 56.4113
lwrist 21.079
lhand -26.1873 13.8767
lfingers 7.12502
lthumb -179.635 -136.144
rfemur 7.81213 -8.4637 20.7292
rtibia 23.7418
rfoot 19.2215 -26.1151
rtoes 12.7355
lfemur -27.5701 -13.4482 -12.9441
ltibia 20.9332
lfoot 50.8754 -26.2641
ltoes 44.7597
371
root -6.3493 18.013 -3.52591 -164.584 5.0311 -174.371
lowerback -5.50204 9.69683 11.741
upperback -8.47425 15.0072 4.49549
thorax -4.54981 7.82318 -1.24338
lowerneck -11.7161 -13.0853 0.0348548
upperneck 11.1139 -17.5206 -1.88975
head 5.055 -8.74151 -1.90792
rclavicle -7.79236e-014 -1.09729e-013
rhumerus 86.1207 29.1683 -63.6798
rradius 54.5993
rwrist -4.85691
rhand -40.8197 31.3392
rfingers 7.12502
rthumb -13.7579 1.81407
lclavicle -7.79236e-014 -1.09729e-013
lhumerus 63.2779 2.36029 62.8933
lradius 55.6196
lwrist 21.9604
lhand -25.5739 14.1984
lfingers 7.12502
lthumb -179.043 -135.824
rfemur 7.73058 -8.56315 20.5889
rtibia 23.902
rfoot 19.5208 -25.4915
rtoes 10.8864
lfemur -27.5291 -13.3032 -12.9406
ltibia 20.9228
lfoot 50.5879 -26.3758
ltoes 44.569
